<?xml version="1.0" standalone="no"?>
<!DOCTYPE svg PUBLIC "-//W3C//DTD SVG 20010904//EN"
 "http://www.w3.org/TR/2001/REC-SVG-20010904/DTD/svg10.dtd">
<svg version="1.0" xmlns="http://www.w3.org/2000/svg"
 width="429.000000pt" height="512.000000pt" viewBox="0 0 429.000000 512.000000"
 preserveAspectRatio="xMidYMid meet">

<g transform="translate(0.000000,512.000000) scale(0.100000,-0.100000)"
fill="#c0ec23" stroke="none">
<path d="M2223 5071 c-152 -42 -209 -95 -302 -286 -34 -69 -61 -129 -61 -133
0 -4 -27 -15 -60 -26 -51 -15 -78 -17 -192 -11 -149 7 -377 -15 -437 -43 -55
-26 -151 -131 -313 -343 -84 -110 -207 -272 -273 -359 -66 -87 -134 -173 -151
-193 -62 -69 -107 -253 -120 -483 -6 -120 -5 -134 15 -179 43 -98 126 -173
237 -215 33 -12 101 -23 178 -30 72 -5 159 -20 208 -34 46 -13 157 -36 248
-50 91 -15 208 -34 260 -42 130 -21 140 -32 96 -107 -14 -23 -28 -65 -31 -92
l-7 -51 -57 1 c-49 0 -64 -5 -116 -39 -33 -21 -77 -54 -99 -72 -21 -18 -121
-83 -221 -145 -194 -119 -226 -149 -190 -176 16 -12 40 -14 124 -9 97 6 106 8
150 40 25 19 57 46 70 60 14 14 27 26 31 26 4 0 17 -23 30 -50 l24 -51 -50
-50 c-27 -28 -63 -57 -80 -65 -50 -21 -100 -85 -113 -143 -16 -75 -14 -131 6
-153 15 -17 15 -19 0 -36 -16 -18 -20 -17 -104 11 -179 60 -390 45 -539 -38
-122 -68 -233 -195 -283 -322 -81 -207 -62 -468 49 -683 147 -281 434 -470
715 -470 119 0 188 16 292 66 195 93 321 276 354 510 12 87 5 214 -16 295 -15
56 -20 52 65 69 85 17 290 100 327 133 19 17 47 55 63 86 l28 56 121 29 c118
28 153 44 193 91 26 30 18 66 -18 87 -18 10 -69 25 -114 33 -46 8 -85 17 -88
20 -3 3 10 22 29 43 20 20 179 192 356 382 350 378 383 410 417 410 43 0 58
-30 50 -99 -5 -47 -3 -72 10 -106 l17 -44 -52 -68 c-110 -143 -153 -275 -153
-463 0 -145 15 -213 74 -336 101 -209 282 -360 510 -424 105 -29 276 -29 380
0 263 74 459 283 515 549 31 150 12 337 -49 476 -88 199 -267 362 -472 431
-198 66 -362 54 -581 -43 -9 -4 -13 6 -13 34 0 39 -14 67 -56 113 -32 35 -107
178 -99 189 3 6 38 27 78 48 192 100 274 273 203 428 -14 31 -35 70 -47 86
-22 32 -18 44 16 51 27 4 45 44 45 98 0 93 -50 142 -180 176 -41 11 -75 27
-91 44 -15 14 -48 35 -74 45 -27 10 -67 30 -89 45 -23 15 -112 64 -198 109
-152 80 -161 86 -266 192 -60 61 -115 121 -122 134 -20 38 -7 55 43 55 56 0
90 32 91 87 2 31 6 39 24 41 21 3 42 50 42 94 0 9 20 31 44 48 25 16 47 39 51
49 10 32 49 50 114 52 43 1 66 -3 79 -13 34 -30 104 -59 135 -56 50 5 46 37
-18 153 -62 112 -115 241 -115 280 0 42 -36 100 -106 170 -105 105 -130 118
-232 122 -63 2 -107 -2 -159 -16z m-352 -1280 c30 -22 82 -71 116 -109 35 -40
80 -78 103 -89 22 -10 40 -22 40 -27 0 -16 -153 4 -186 25 -26 16 -50 19 -148
19 -109 0 -121 2 -162 26 -25 15 -42 30 -37 34 66 63 190 160 203 160 9 0 41
-18 71 -39z m734 -391 c83 -18 160 -39 173 -46 12 -8 27 -12 32 -9 18 11 70
-25 76 -53 3 -15 9 -37 14 -49 l10 -23 -138 0 c-75 0 -155 5 -176 10 -69 15
-188 153 -172 197 4 8 12 13 19 10 6 -2 80 -19 162 -37z m-640 -20 c17 -17 38
-30 47 -30 9 0 23 -8 30 -17 14 -19 149 -93 169 -93 6 0 31 18 55 40 70 64 88
59 183 -56 163 -196 188 -234 200 -299 10 -52 18 -66 65 -115 l54 -55 -11 -69
-12 -69 -75 -53 c-75 -52 -559 -360 -637 -405 -23 -13 -44 -21 -46 -19 -3 3
-1 32 4 65 4 33 11 86 14 118 6 49 12 63 38 85 182 155 229 226 235 361 6 116
-9 166 -62 216 -24 23 -141 94 -270 165 -202 111 -362 217 -350 230 3 2 28 12
57 22 42 14 74 16 167 13 111 -5 115 -6 145 -35z m681 -202 c-3 -13 -6 -32 -6
-43 -1 -17 -4 -16 -25 10 -33 40 -32 55 6 55 28 0 31 -3 25 -22z m401 -33
c104 -40 150 -71 174 -117 29 -57 35 -132 15 -200 -14 -48 -26 -66 -85 -120
-38 -34 -94 -78 -125 -97 l-57 -34 -27 20 c-15 10 -37 39 -50 63 -19 38 -20
46 -8 58 12 12 25 12 79 3 36 -6 72 -8 81 -5 50 19 22 217 -50 360 -31 60 -38
94 -19 94 3 0 35 -11 72 -25z m-368 -754 c-37 -51 -734 -811 -743 -811 -23 0
-76 56 -82 86 -5 27 0 37 40 76 25 25 46 50 46 55 0 5 -13 22 -30 38 -16 16
-30 34 -30 41 0 24 102 94 449 311 196 122 358 222 360 222 2 1 -3 -8 -10 -18z
m755 -259 c6 -11 35 -391 32 -429 -1 -18 -3 -43 -4 -56 -1 -15 -9 -23 -21 -24
-26 -2 -63 57 -146 231 l-66 139 22 23 c23 25 18 44 -11 44 -43 0 6 43 61 54
8 2 25 8 39 14 29 13 87 15 94 4z m128 3 c3 -3 -10 -72 -29 -153 -18 -81 -32
-153 -31 -161 2 -8 19 54 38 138 19 84 38 157 41 162 6 10 95 -17 105 -32 5
-8 -96 -202 -171 -329 l-27 -45 6 45 c5 32 3 41 -4 30 -8 -12 -10 -10 -10 10
0 14 -7 88 -15 165 -8 77 -15 148 -15 158 0 14 9 17 53 17 30 0 56 -2 59 -5z
m196 -85 c23 -17 42 -33 42 -36 0 -4 -22 -45 -48 -93 -66 -116 -74 -131 -68
-131 3 0 33 50 67 111 l62 110 39 -38 c21 -20 38 -42 38 -47 0 -6 -62 -73
-137 -150 -76 -76 -131 -136 -123 -133 8 3 80 35 160 72 80 37 155 68 168 68
20 2 27 -7 42 -45 l19 -47 -27 -5 c-122 -25 -366 -56 -374 -48 -7 7 -27 0 -58
-18 -63 -37 -90 -32 -89 19 l1 36 10 -32 c15 -47 28 -41 17 8 -9 39 -6 46 98
235 58 107 110 194 113 194 4 0 26 -14 48 -30z m-610 -236 c-7 -6 -128 78
-128 89 0 6 7 19 16 28 16 17 19 15 66 -47 27 -37 48 -68 46 -70z m786 56 c14
-22 26 -44 26 -49 0 -5 -26 -22 -57 -37 -32 -14 -103 -49 -158 -76 l-100 -50
125 126 c69 69 128 126 131 126 3 0 18 -18 33 -40z m-728 -134 c20 -26 34 -49
32 -51 -3 -4 -264 91 -276 100 -4 3 29 78 40 92 14 18 159 -82 204 -141z m-89
-22 c140 -52 154 -59 177 -95 32 -48 32 -52 -1 -80 -20 -16 -22 -20 -8 -15
101 37 98 1 -5 -64 -41 -26 -123 -77 -182 -113 l-108 -67 -15 37 c-33 79 -36
74 75 117 55 22 98 41 96 43 -2 3 -47 -10 -99 -29 -53 -18 -98 -30 -102 -26
-12 12 -25 152 -19 203 7 69 25 145 32 145 4 0 75 -25 159 -56z m-1527 16 c16
-29 9 -85 -10 -85 -8 0 -24 18 -34 39 -19 38 -19 39 -1 53 25 18 32 17 45 -7z
m2444 -113 c4 -26 5 -51 2 -55 -4 -3 -28 -9 -54 -14 l-47 -7 53 3 52 3 0 -58
0 -59 -37 -1 -38 -2 35 -6 c33 -6 35 -8 32 -40 -5 -43 -20 -83 -29 -78 -80 44
-302 166 -326 179 -31 17 -31 17 -7 19 17 1 13 4 -15 9 -22 4 -49 11 -60 15
-11 5 -3 -6 19 -23 21 -18 46 -32 55 -32 10 0 21 -4 27 -9 5 -5 78 -47 162
-94 l152 -84 -28 -55 c-15 -30 -43 -76 -62 -100 -37 -48 -123 -118 -146 -118
-11 0 -265 401 -264 418 1 4 60 -54 133 -128 150 -155 142 -141 -21 34 -105
113 -111 121 -95 138 12 14 25 17 52 13 l36 -6 -27 21 c-32 25 -35 55 -10 88
19 24 27 26 347 75 17 2 46 4 65 3 34 -1 35 -3 44 -49z m-487 -34 c-9 -9 -20
-13 -24 -9 -4 4 -1 11 7 16 25 16 35 11 17 -7z m18 -73 c3 -5 -1 -10 -9 -10
-9 0 -16 5 -16 10 0 6 4 10 9 10 6 0 13 -4 16 -10z m-142 -35 c20 -4 37 -12
37 -17 0 -5 -28 -42 -62 -82 -35 -40 -103 -123 -153 -184 -49 -61 -95 -112
-102 -112 -22 0 -148 169 -141 191 7 19 343 218 363 214 11 -2 37 -7 58 -10z
m185 -252 c76 -115 142 -214 146 -221 5 -8 -6 -19 -36 -32 -58 -26 -65 -25
-83 13 -15 31 -15 25 -1 -19 8 -28 -13 -34 -119 -34 -132 0 -128 -3 -122 104
l6 91 -13 -82 c-6 -45 -14 -85 -18 -88 -3 -4 -29 4 -58 16 -45 19 -51 25 -46
46 15 61 14 74 -2 30 l-17 -48 -43 30 c-23 17 -42 35 -42 40 0 4 35 49 78 99
42 49 96 113 120 141 24 28 47 51 52 51 5 0 11 -12 13 -27 3 -24 4 -23 6 7 4
86 19 47 41 -107 13 -92 25 -162 28 -155 4 13 -28 333 -35 345 -2 4 -2 7 1 7
3 0 68 -93 144 -207z m-2858 182 c18 -22 4 -285 -15 -285 -13 0 -87 276 -78
293 8 13 80 7 93 -8z m-101 -32 c5 -21 22 -94 37 -161 l28 -124 -24 -19 c-14
-11 -37 -28 -52 -39 l-26 -20 -70 112 c-38 62 -72 118 -75 124 -4 7 2 23 13
36 21 27 17 38 -12 38 -45 0 -4 36 79 70 74 29 91 27 102 -17z m220 -38 c-11
-64 -112 -352 -117 -337 -2 6 20 94 48 194 63 225 59 213 70 202 5 -5 5 -30
-1 -59z m621 -25 c0 -89 0 -90 -30 -105 -16 -8 -32 -15 -35 -15 -7 0 -56 112
-53 121 3 8 108 89 115 89 2 0 3 -40 3 -90z m-514 39 c19 -11 34 -25 34 -30 0
-5 4 -8 9 -6 5 1 30 -15 55 -36 l46 -38 -77 -102 c-42 -56 -80 -108 -86 -114
-5 -7 -7 -13 -4 -13 4 0 40 45 81 99 42 55 81 103 87 106 10 7 16 1 59 -57
l21 -27 -78 -52 c-63 -43 -153 -88 -178 -89 -3 0 -12 -3 -20 -7 -9 -3 -18 -3
-22 0 -3 3 -12 0 -20 -8 -16 -16 -33 -20 -33 -7 0 5 16 96 35 202 19 106 35
195 35 197 0 9 26 1 56 -18z m-181 -1 c3 -7 -2 -38 -9 -68 l-14 -55 -1 68 c-1
40 3 67 9 67 6 0 13 -6 15 -12z m-282 -218 c71 -126 90 -185 43 -128 -92 110
-102 114 -28 13 18 -25 29 -45 24 -45 -14 0 -222 227 -222 242 0 7 19 32 42
55 42 43 42 43 54 21 7 -13 46 -84 87 -158z m-150 -4 c45 -52 59 -74 37 -61
-5 3 -10 4 -10 1 0 -3 10 -11 23 -18 13 -7 42 -34 66 -60 42 -46 42 -47 26
-78 -14 -27 -17 -64 -12 -141 1 -17 14 -35 34 -50 18 -13 33 -27 33 -30 0 -3
-52 -47 -115 -98 -63 -51 -115 -95 -115 -98 0 -7 2 -5 132 101 l108 87 54 -12
c46 -10 58 -9 86 5 43 21 44 21 25 -12 -17 -29 -66 -62 -91 -62 -18 0 -17 -4
0 -39 13 -25 12 -30 -13 -72 -45 -73 -93 -159 -88 -159 2 0 30 43 63 95 59 95
67 103 93 86 10 -6 27 -3 52 10 21 10 40 19 42 19 2 0 16 -45 32 -100 16 -55
30 -98 32 -96 4 3 -31 159 -42 188 -5 12 2 21 25 33 18 9 36 13 40 8 40 -46
230 -284 230 -288 0 -2 -19 -17 -42 -31 -39 -25 -43 -26 -53 -10 -22 38 -35
49 -20 17 9 -18 13 -37 8 -42 -15 -15 -126 -39 -180 -39 l-53 0 -2 83 -2 82
-3 -76 c-4 -86 4 -80 -86 -58 l-37 10 5 57 4 57 -10 -50 c-6 -27 -12 -51 -13
-52 -2 -3 -92 43 -105 53 -2 2 2 12 10 21 13 16 12 17 -4 4 -16 -13 -23 -11
-59 15 -71 50 -207 245 -195 278 3 7 38 30 79 51 78 41 143 80 118 72 -8 -3
-59 -26 -113 -51 -109 -51 -103 -53 -122 32 l-7 32 44 2 43 1 -42 4 c-40 4
-43 6 -49 40 -7 37 1 197 10 212 3 4 63 -9 133 -30 70 -22 132 -38 136 -36 5
1 -49 20 -120 41 -70 22 -131 42 -136 46 -9 8 22 100 34 100 5 0 8 3 7 8 -3
11 13 52 20 52 4 0 28 -25 55 -54z m456 -54 c-10 -52 -21 -98 -25 -103 -5 -9
-34 -13 -34 -5 0 10 73 206 76 204 1 -2 -6 -45 -17 -96z m401 19 c0 -9 -111
-54 -117 -47 -2 2 20 17 49 34 50 28 68 31 68 13z m385 -11 c38 -23 49 -44 32
-58 -13 -11 -127 -46 -131 -40 -2 1 -6 19 -10 40 -6 31 -3 39 20 57 33 26 48
26 89 1z m-360 -31 c4 -11 5 -22 3 -24 -7 -7 -291 -76 -295 -71 -8 8 77 47
177 82 115 39 107 39 115 13z m24 -89 c-32 -16 -370 -112 -376 -106 -3 3 -4 8
-2 10 10 10 375 113 383 109 5 -3 2 -9 -5 -13z m-374 -19 c-16 -14 -55 -23
-55 -12 0 8 16 14 55 20 6 0 6 -2 0 -8z m399 -70 c-5 -4 -80 -23 -166 -41 -87
-18 -156 -35 -153 -38 3 -4 145 25 288 57 20 5 37 7 37 6 0 -2 3 -10 6 -19 4
-11 -14 -25 -68 -52 -60 -31 -83 -37 -133 -37 -57 1 -58 0 -15 -6 44 -6 44 -7
21 -20 -20 -11 -29 -10 -62 5 -22 9 -39 21 -39 26 0 4 -11 8 -25 8 -14 0 -29
8 -34 19 -10 17 -1 22 92 55 244 86 241 86 251 64 6 -11 6 -22 0 -27z m15
-140 c0 -39 -3 -81 -7 -95 l-7 -26 -92 43 c-51 23 -92 45 -93 48 0 15 70 34
125 32 l60 -1 -50 7 -50 6 50 27 c28 15 53 27 57 28 4 0 7 -31 7 -69z m-348
19 c18 0 99 -40 99 -49 0 -4 -31 -22 -70 -41 l-70 -34 -25 24 c-19 18 -25 33
-25 68 0 35 3 43 15 38 9 -3 15 0 15 10 0 15 2 15 25 0 13 -9 30 -16 36 -16z
m235 -106 l102 -46 -10 -37 c-5 -20 -23 -63 -38 -96 -34 -71 -123 -175 -138
-160 -23 25 -212 278 -212 285 0 25 32 11 90 -38 l65 -55 -58 58 c-32 32 -57
59 -55 60 10 9 135 74 143 75 6 0 56 -21 111 -46z m-297 -28 c-10 -12 -49 21
-49 41 0 11 8 8 29 -9 17 -13 25 -27 20 -32z m-56 0 c15 -22 14 -24 -8 -34
-27 -12 -35 -7 -35 23 0 41 20 46 43 11z m-63 -15 c0 -5 3 -16 6 -24 3 -10 -3
-20 -16 -27 -18 -9 -21 -9 -15 0 4 7 1 16 -6 21 -10 6 -11 9 -1 9 6 0 12 7 12
15 0 8 5 15 10 15 6 0 10 -4 10 -9z"/>
<path d="M3655 1750 c-9 -16 -13 -30 -11 -30 3 0 12 14 21 30 9 17 13 30 11
30 -3 0 -12 -13 -21 -30z"/>
<path d="M2963 1513 c9 -2 25 -2 35 0 9 3 1 5 -18 5 -19 0 -27 -2 -17 -5z"/>
<path d="M3240 1510 c-9 -6 -10 -10 -3 -10 6 0 15 5 18 10 8 12 4 12 -15 0z"/>
<path d="M3185 1500 c-3 -5 -2 -10 4 -10 5 0 13 5 16 10 3 6 2 10 -4 10 -5 0
-13 -4 -16 -10z"/>
<path d="M3815 1530 c-33 -6 -35 -7 -10 -8 17 0 53 3 80 8 47 7 48 7 10 7 -22
0 -58 -3 -80 -7z"/>
<path d="M3718 1513 c12 -2 30 -2 40 0 9 3 -1 5 -23 4 -22 0 -30 -2 -17 -4z"/>
<path d="M3738 1463 c7 -3 16 -2 19 1 4 3 -2 6 -13 5 -11 0 -14 -3 -6 -6z"/>
<path d="M3788 1453 c6 -2 18 -2 25 0 6 3 1 5 -13 5 -14 0 -19 -2 -12 -5z"/>
<path d="M3848 1443 c12 -2 30 -2 40 0 9 3 -1 5 -23 4 -22 0 -30 -2 -17 -4z"/>
<path d="M3923 1433 c9 -2 23 -2 30 0 6 3 -1 5 -18 5 -16 0 -22 -2 -12 -5z"/>
<path d="M3349 1403 c-13 -16 -12 -17 4 -4 9 7 17 15 17 17 0 8 -8 3 -21 -13z"/>
<path d="M3411 1224 c0 -11 3 -14 6 -6 3 7 2 16 -1 19 -3 4 -6 -2 -5 -13z"/>
<path d="M3402 1155 c0 -16 2 -22 5 -12 2 9 2 23 0 30 -3 6 -5 -1 -5 -18z"/>
<path d="M961 1184 c-23 -64 -40 -118 -38 -120 2 -2 23 48 46 112 24 63 41
117 38 120 -2 3 -23 -48 -46 -112z"/>
<path d="M906 1035 c-9 -26 -7 -32 5 -12 6 10 9 21 6 23 -2 3 -7 -2 -11 -11z"/>
<path d="M300 1116 c0 -3 14 -12 30 -21 17 -9 30 -13 30 -11 0 3 -13 12 -30
21 -16 9 -30 13 -30 11z"/>
<path d="M378 743 c7 -3 16 -2 19 1 4 3 -2 6 -13 5 -11 0 -14 -3 -6 -6z"/>
<path d="M753 435 c0 -38 2 -53 4 -32 2 20 2 52 0 70 -2 17 -4 1 -4 -38z"/>
<path d="M1080 475 c13 -14 26 -25 28 -25 3 0 -5 11 -18 25 -13 14 -26 25 -28
25 -3 0 5 -11 18 -25z"/>
</g>
</svg>
