<?xml version="1.0" standalone="no"?>
<!DOCTYPE svg PUBLIC "-//W3C//DTD SVG 20010904//EN"
 "http://www.w3.org/TR/2001/REC-SVG-20010904/DTD/svg10.dtd">
<svg version="1.0" xmlns="http://www.w3.org/2000/svg"
 width="512.000000pt" height="512.000000pt" viewBox="0 0 512.000000 512.000000"
 preserveAspectRatio="xMidYMid meet">
<metadata>
Created by potrace 1.11, written by Peter Selinger 2001-2013
</metadata>
<g transform="translate(0.000000,512.000000) scale(0.100000,-0.100000)"
fill="#000000" stroke="none">
<path d="M2642 5069 c-69 -17 -172 -65 -172 -79 0 -3 -14 -20 -31 -38 -28 -28
-159 -277 -159 -302 0 -5 -9 -10 -21 -10 -11 0 -30 -6 -42 -12 -15 -9 -82 -13
-222 -14 -110 -1 -213 -4 -230 -7 -16 -3 -55 -8 -85 -12 -30 -4 -70 -14 -89
-23 -55 -26 -151 -130 -297 -324 -76 -101 -158 -208 -184 -238 -25 -30 -80
-102 -122 -160 -42 -58 -93 -123 -113 -145 -37 -40 -82 -122 -88 -160 -1 -11
-6 -26 -10 -32 -5 -7 -6 -13 -3 -13 3 0 1 -12 -5 -27 -5 -14 -12 -45 -15 -69
-3 -23 -7 -53 -10 -65 -3 -13 -7 -84 -9 -157 -5 -126 -4 -135 20 -181 64 -127
196 -213 350 -226 206 -17 186 -14 265 -39 30 -9 71 -19 90 -22 19 -3 41 -7
49 -10 8 -2 30 -7 50 -10 20 -3 47 -7 61 -10 14 -2 54 -8 90 -14 113 -16 167
-25 230 -35 19 -3 43 -14 52 -25 16 -19 15 -23 -17 -75 -23 -38 -32 -65 -30
-87 4 -47 -3 -53 -66 -54 -49 0 -63 -5 -125 -47 -38 -25 -81 -57 -97 -70 -15
-14 -110 -76 -212 -138 -193 -119 -226 -149 -190 -176 16 -11 42 -13 124 -9
102 5 104 6 155 45 28 21 61 48 73 60 12 12 24 21 26 21 3 0 14 -23 27 -51 24
-57 28 -44 -41 -120 -13 -14 -42 -33 -63 -43 -80 -37 -116 -102 -123 -219 -5
-66 -3 -77 11 -77 20 0 20 -9 1 -37 l-15 -21 -52 19 c-29 11 -62 22 -73 25
-135 32 -236 34 -355 8 -83 -18 -188 -75 -265 -145 -88 -81 -153 -188 -190
-314 -27 -90 -30 -277 -6 -385 55 -247 221 -473 434 -589 67 -38 182 -82 218
-86 15 -1 32 -5 38 -9 20 -13 219 -7 271 8 200 57 350 187 431 372 54 125 71
352 35 481 -8 29 -11 55 -7 57 3 2 27 7 51 11 60 9 56 8 118 32 9 3 19 7 22 8
3 1 16 6 30 12 14 6 54 23 90 37 78 32 113 64 150 136 l28 55 104 24 c56 14
117 30 133 37 40 16 82 55 94 86 8 21 6 29 -12 46 -20 19 -77 39 -137 48 -74
12 -90 16 -90 22 0 4 28 36 61 72 33 36 91 99 129 140 37 41 88 96 112 121 24
25 88 94 143 153 257 278 327 346 356 346 48 0 59 -21 53 -103 -4 -58 -2 -79
13 -108 l19 -36 -29 -34 c-75 -89 -147 -222 -161 -300 -3 -13 -5 -24 -6 -24
-6 0 -11 -55 -15 -145 -16 -381 246 -718 620 -797 110 -24 198 -23 336 2 44 8
161 63 221 102 37 25 91 71 120 103 69 75 68 74 110 150 97 175 117 397 52
598 -19 61 -82 186 -105 211 -11 11 -19 24 -19 28 0 16 -135 141 -195 181
-157 105 -357 148 -548 119 -51 -8 -186 -53 -202 -68 -17 -17 -25 -9 -25 27 0
40 -12 66 -47 103 -33 35 -115 182 -109 196 2 6 37 29 78 50 130 69 221 184
231 295 6 60 -16 133 -60 199 -35 54 -35 70 3 75 28 4 44 44 42 104 -3 93 -43
131 -178 167 -38 10 -74 27 -86 40 -23 25 -75 55 -96 55 -7 0 -34 15 -59 33
-25 17 -117 68 -204 112 -155 78 -160 82 -267 190 -153 153 -171 195 -85 195
55 0 89 32 92 87 2 30 7 39 24 41 19 3 31 30 43 96 2 10 12 24 22 30 27 15 76
65 76 76 0 35 153 58 187 28 35 -30 104 -59 136 -56 50 5 47 38 -13 143 -59
107 -120 254 -120 293 0 60 -149 233 -235 272 -53 24 -167 24 -263 -1z m-350
-1277 c25 -20 76 -70 137 -135 24 -26 62 -55 83 -64 21 -9 37 -22 34 -27 -2
-6 -7 -10 -12 -10 -5 1 -36 5 -69 8 -73 8 -95 15 -113 32 -7 8 -32 14 -55 15
-23 0 -79 0 -124 0 -71 1 -87 4 -123 27 l-41 27 23 19 c13 10 48 40 78 66 107
93 101 90 133 74 15 -8 37 -23 49 -32z m633 -371 c22 -5 56 -13 75 -16 19 -3
51 -10 70 -15 19 -5 50 -12 69 -15 19 -3 43 -11 55 -17 11 -7 30 -13 41 -13
47 -3 70 -28 78 -86 2 -8 6 -19 10 -26 11 -18 0 -20 -98 -17 -147 4 -221 11
-242 22 -36 20 -130 130 -136 159 -9 46 -6 47 78 24z m-588 -10 c12 -1 34 -14
50 -31 15 -16 36 -30 45 -30 9 0 23 -8 30 -17 15 -20 150 -93 170 -93 7 1 31
19 53 40 74 74 92 63 266 -157 91 -115 110 -145 115 -183 8 -58 23 -84 77
-142 48 -50 48 -54 22 -165 -4 -16 -51 -53 -148 -117 -250 -165 -607 -385
-608 -376 -3 23 -2 38 4 85 4 28 10 70 12 95 8 65 11 72 58 107 98 74 192 186
202 241 2 9 4 17 6 17 8 0 13 165 5 202 -7 32 -34 80 -58 103 -13 12 -72 48
-133 82 -104 58 -130 72 -242 134 -88 48 -168 98 -183 114 -8 9 -28 25 -43 37
l-28 21 23 8 c13 4 25 7 28 8 3 0 21 6 40 13 23 9 66 11 125 9 50 -3 100 -5
112 -5z m729 -234 c-3 -12 -5 -31 -6 -42 -1 -18 -4 -16 -25 10 -33 39 -31 52
5 53 25 1 29 -3 26 -21z m435 -47 c131 -54 169 -106 165 -226 -4 -97 -19 -131
-84 -188 -19 -17 -42 -38 -50 -46 -16 -15 -112 -79 -122 -81 -3 0 -13 -2 -22
-4 -22 -4 -53 26 -79 76 -28 55 -14 73 50 64 110 -15 110 -15 122 7 26 49 -13
248 -70 352 -52 94 -40 100 90 46z m-422 -763 c-19 -18 -63 -67 -99 -107 -36
-41 -74 -84 -85 -96 -11 -12 -49 -54 -85 -94 -36 -40 -76 -84 -90 -99 -14 -15
-59 -65 -100 -111 -41 -46 -82 -91 -90 -100 -8 -8 -48 -53 -89 -98 -41 -45
-79 -82 -85 -82 -23 0 -76 56 -82 86 -5 27 0 37 40 76 25 25 46 50 46 56 0 6
-13 22 -30 35 -16 14 -30 32 -30 40 0 24 83 87 235 180 77 47 145 91 152 97 7
5 14 10 17 10 3 0 207 124 246 150 56 38 156 97 159 94 1 -1 -12 -18 -30 -37z
m898 -232 c8 -3 9 -13 3 -34 -5 -17 -6 -31 -4 -31 3 0 2 -6 -3 -12 -4 -7 -8
-17 -9 -23 -1 -5 -5 -21 -8 -35 -3 -14 -8 -38 -11 -55 -3 -16 -11 -50 -16 -74
-5 -24 -8 -46 -6 -48 4 -4 50 176 61 240 10 59 16 68 39 61 42 -13 142 -63
172 -86 46 -36 115 -105 115 -114 0 -5 -63 -71 -140 -147 -77 -76 -140 -136
-140 -132 0 3 -13 -3 -29 -14 -16 -12 -34 -21 -39 -21 -6 0 -14 -5 -18 -11 -4
-8 1 -9 17 -4 23 7 23 6 7 -11 -31 -32 -47 2 -50 104 -1 17 -5 32 -10 32 -4 0
-3 11 2 25 5 13 5 27 1 30 -5 3 -12 38 -16 77 -3 40 -8 91 -11 113 -10 98 -14
168 -9 174 4 8 80 5 102 -4z m-122 -5 c2 -3 6 -44 10 -90 7 -91 10 -124 20
-238 5 -55 3 -72 -5 -67 -9 6 -9 2 -1 -13 13 -25 3 -112 -10 -90 -7 10 -9 10
-9 1 0 -26 -18 -12 -54 42 -20 30 -36 56 -36 59 0 2 -23 53 -52 112 -29 60
-52 111 -53 114 0 3 -4 10 -8 17 -9 15 1 40 19 47 14 5 20 37 7 35 -52 -8 -49
23 5 44 33 13 38 13 49 -2 10 -14 11 -14 10 3 -1 13 6 22 23 27 28 8 80 7 85
-1z m-316 -271 l44 -62 -34 25 c-45 33 -64 44 -56 31 3 -5 26 -22 51 -38 25
-16 64 -55 87 -88 23 -32 52 -70 65 -84 13 -14 24 -32 24 -39 0 -8 5 -14 10
-14 19 0 10 -29 -16 -49 -19 -15 -22 -21 -11 -21 9 0 19 5 22 10 3 6 17 10 31
10 32 0 29 -29 -4 -46 -12 -6 -30 -17 -39 -25 -10 -8 -35 -24 -55 -34 -21 -11
-38 -23 -38 -27 0 -8 39 10 50 23 3 3 12 9 20 12 8 4 30 16 49 28 20 12 40 17
50 13 18 -8 59 -16 81 -16 9 0 16 -8 16 -18 0 -10 -3 -18 -6 -17 -10 3 -52
-25 -46 -30 3 -3 -2 -13 -12 -22 -10 -9 -36 -38 -57 -66 -22 -27 -42 -52 -45
-55 -3 -3 -24 -27 -45 -55 -22 -27 -48 -59 -58 -70 -19 -21 -47 -68 -30 -50 5
6 38 44 73 85 35 41 72 82 82 91 10 9 18 20 18 25 0 5 16 24 35 43 29 27 36
30 41 17 3 -9 4 -23 0 -31 -3 -8 -1 -15 4 -15 6 0 11 16 11 35 1 19 3 40 4 45
1 6 3 16 5 23 1 6 8 -28 16 -78 7 -49 17 -106 20 -125 3 -19 6 -43 6 -52 0
-10 3 -20 8 -23 8 -5 6 45 -6 130 -12 92 -15 170 -6 160 6 -5 66 -95 135 -200
69 -104 131 -195 136 -202 16 -18 14 -21 -29 -43 -55 -28 -66 -26 -84 20 -9
22 -18 40 -21 40 -3 0 2 -17 10 -37 15 -35 15 -39 -1 -50 -24 -18 -152 -20
-211 -4 -25 7 -28 11 -24 47 3 44 -5 44 -13 0 -3 -16 -7 -30 -9 -33 -3 -2 -26
5 -53 16 -47 18 -49 21 -46 52 2 19 8 42 13 51 5 9 5 19 1 22 -5 3 -9 0 -9 -7
-1 -7 -7 -29 -15 -50 l-14 -39 -54 43 c-30 23 -70 59 -89 78 -37 39 -101 134
-101 150 0 6 14 17 30 26 17 9 30 18 30 21 0 3 -15 -3 -34 -14 l-34 -20 -22
54 c-13 30 -21 56 -19 58 2 1 47 20 99 40 52 21 99 41 104 46 8 8 -176 -54
-194 -65 -32 -20 -45 178 -20 299 12 57 23 66 58 46 25 -14 235 -90 240 -86 1
2 -41 20 -95 41 -54 20 -117 45 -141 56 l-42 19 16 38 c9 20 18 43 21 49 4 10
12 9 36 -3 l32 -15 -25 20 c-22 18 -23 21 -10 45 17 32 25 26 89 -65z m821 0
l26 -44 -58 -27 c-32 -16 -61 -29 -65 -29 -5 -1 -20 -10 -35 -20 -14 -10 -33
-19 -42 -19 -9 0 -16 -4 -16 -9 0 -14 16 -8 105 33 132 62 120 62 143 3 18
-47 18 -53 3 -58 -17 -7 -76 -16 -156 -25 -27 -3 -54 -10 -60 -15 -6 -7 2 -8
25 -4 19 3 55 8 79 11 23 2 60 8 81 13 39 9 53 5 57 -16 17 -84 16 -92 -8 -97
-58 -13 -61 -15 -19 -13 l45 2 -2 -42 c-2 -86 2 -81 -50 -72 -27 4 -63 10 -80
13 -18 4 -33 3 -33 -1 0 -5 12 -9 28 -10 15 -1 50 -6 77 -10 48 -8 50 -9 48
-40 -5 -55 -20 -84 -40 -75 -20 8 -134 70 -221 120 l-57 33 43 -5 c24 -3 49
-9 55 -12 9 -5 9 -4 0 6 -7 7 -33 14 -58 14 -25 1 -45 5 -45 10 0 4 -6 6 -14
3 -8 -3 -23 3 -34 14 -12 10 -27 19 -34 19 -7 0 -21 7 -31 15 -11 7 -25 11
-33 8 -10 -4 -12 0 -7 13 9 27 43 74 51 72 6 -1 45 3 139 16 7 1 16 6 20 10 8
7 -48 2 -109 -10 -43 -9 -33 3 30 35 64 34 64 42 -1 10 -36 -18 -25 -4 83 105
69 68 129 123 135 122 5 -1 21 -22 35 -47z m-2355 -125 c21 -21 17 -89 -5 -89
-8 0 -23 17 -33 38 -15 30 -16 41 -7 52 16 19 25 19 45 -1z m1905 -103 c7 -24
6 -31 -6 -31 -10 0 -14 12 -14 37 0 42 7 40 20 -6z m120 -132 c0 -4 -9 -5 -20
-2 -11 3 -20 12 -20 19 0 12 4 12 20 2 11 -7 20 -16 20 -19z m-47 7 c4 -10 1
-13 -9 -9 -15 6 -19 23 -5 23 5 0 11 -7 14 -14z m55 -38 c15 -12 16 -11 3 5
-12 15 -11 17 3 17 9 0 16 -4 16 -9 0 -5 13 -11 29 -14 16 -3 55 -23 87 -43
33 -20 103 -60 157 -89 l98 -51 -36 -69 c-20 -37 -43 -74 -51 -83 -9 -8 -22
-26 -31 -39 -12 -18 -18 -21 -29 -12 -11 9 -13 9 -9 -3 9 -22 -39 -57 -84 -62
-12 -1 -80 102 -148 224 -14 25 -31 52 -37 60 -7 8 -29 43 -50 78 l-38 63 22
24 c24 26 67 27 98 3z m-2955 -158 c14 -58 31 -131 38 -164 l13 -59 -30 -24
c-39 -31 -47 -38 -61 -46 -9 -6 -89 112 -159 234 -2 4 6 18 17 33 11 14 19 26
17 27 -2 0 -14 3 -27 5 -14 2 -26 6 -28 8 -7 6 51 44 72 48 11 1 22 6 25 9 5
6 93 39 97 36 1 -1 13 -49 26 -107z m89 93 c12 -14 14 -30 8 -73 -4 -30 -6
-57 -4 -59 8 -9 13 6 15 47 2 24 7 41 13 39 20 -7 2 -127 -20 -140 -8 -5 -14
-24 -14 -45 0 -40 -14 -71 -24 -54 -5 8 -48 179 -61 245 -2 9 -7 22 -10 27
-20 32 70 43 97 13z m124 -31 c-3 -10 -7 -34 -10 -55 -3 -21 -13 -53 -20 -72
-8 -19 -12 -35 -8 -35 3 0 1 -5 -6 -12 -15 -15 -16 -42 -1 -32 7 4 9 -1 5 -15
-14 -48 -16 -57 -20 -91 -12 -83 -24 -109 -45 -96 -7 5 -7 15 -1 32 14 36 12
43 -5 14 -23 -40 -18 -8 21 128 64 229 75 263 85 256 5 -3 8 -13 5 -22z m614
-52 c1 -41 2 -81 1 -88 -1 -12 -68 -50 -74 -41 -11 15 -48 121 -44 125 13 14
111 84 113 81 2 -1 3 -36 4 -77z m-515 29 c28 -17 34 -26 30 -43 -11 -35 -55
-159 -71 -194 -16 -38 -17 -42 -6 -42 5 0 9 6 9 13 1 6 17 54 37 106 20 51 36
100 36 107 0 8 7 14 15 14 18 0 85 -58 85 -74 0 -6 -28 -47 -61 -91 -33 -44
-75 -99 -92 -123 -19 -26 -38 -42 -47 -39 -9 2 -21 -2 -28 -10 -35 -37 -37 3
-8 134 9 40 20 118 18 126 -1 4 2 7 6 7 4 0 7 12 6 27 -1 36 16 103 27 103 4
0 24 -10 44 -21z m-529 -92 c36 -74 89 -172 95 -177 15 -12 48 -89 40 -94 -5
-3 -22 11 -37 31 -41 52 -77 90 -68 73 4 -8 22 -34 41 -57 18 -23 33 -46 33
-52 0 -12 -20 -15 -20 -3 0 4 -22 30 -48 58 -26 28 -73 79 -104 113 l-57 63
34 37 c19 20 35 39 35 44 0 4 8 7 18 7 10 -1 25 -18 38 -43z m734 -101 l18
-29 -76 -50 c-78 -51 -161 -91 -169 -83 -3 3 14 29 38 60 24 30 52 65 62 78
11 12 31 40 45 61 l26 39 18 -24 c11 -13 28 -36 38 -52z m-812 -36 c53 -59 49
-64 -18 -26 -19 10 -30 14 -25 9 6 -6 30 -22 55 -35 25 -13 67 -47 93 -75 43
-46 60 -72 38 -58 -6 3 -10 -3 -10 -12 0 -10 -4 -36 -9 -58 -4 -22 -4 -55 1
-73 6 -23 5 -38 -4 -49 -11 -12 -10 -14 2 -11 8 1 27 -7 43 -19 27 -21 27 -23
9 -40 -10 -10 -40 -36 -68 -58 -57 -45 -76 -61 -113 -92 -15 -13 -32 -23 -38
-23 -14 0 -58 95 -50 109 4 6 42 29 85 51 43 23 87 47 97 55 18 15 18 15 -1 8
-11 -3 -24 -9 -30 -13 -5 -4 -45 -24 -88 -43 l-78 -36 -10 27 c-6 15 -12 41
-13 58 -2 17 -5 35 -8 40 -8 14 -3 228 6 242 4 7 11 10 16 7 21 -13 240 -71
240 -64 0 5 -7 9 -15 9 -21 0 -235 67 -235 74 0 1 7 24 16 50 14 40 19 46 38
41 20 -6 20 -5 3 9 -16 12 -16 17 -5 35 7 12 15 21 18 21 3 0 29 -27 58 -60z
m850 -32 c-3 -8 -101 -48 -118 -48 -3 0 20 16 50 34 51 32 75 37 68 14z m388
-10 c16 -12 32 -27 36 -32 14 -20 -35 -47 -114 -61 -22 -4 -28 -1 -29 12 0 10
-2 27 -4 38 -5 23 2 35 30 52 30 18 49 15 81 -9z m-361 -29 c8 -25 -8 -39 -43
-39 -13 0 -31 -4 -40 -9 -18 -10 -74 -22 -109 -25 -13 0 -23 -5 -23 -10 0 -5
-3 -7 -6 -3 -3 3 -24 -1 -46 -9 -27 -9 -45 -11 -57 -4 -16 9 -14 11 24 15 12
1 32 8 45 16 23 12 226 87 242 88 4 1 10 -9 13 -20z m21 -88 c-3 -5 -21 -13
-39 -16 -17 -4 -96 -27 -174 -51 -147 -46 -163 -49 -163 -36 0 6 209 74 295
96 6 2 17 6 25 9 19 8 54 14 59 11 1 -2 0 -7 -3 -13z m-396 -26 c0 -8 -7 -15
-15 -15 -26 0 -18 20 13 29 1 1 2 -6 2 -14z m30 11 c0 -3 -4 -8 -10 -11 -5 -3
-10 -1 -10 4 0 6 5 11 10 11 6 0 10 -2 10 -4z m396 -59 c-1 -16 -8 -23 -28
-25 -16 -2 -28 -7 -28 -11 0 -4 15 -5 33 -3 l33 4 2 -60 2 -60 -52 5 c-29 3
-51 3 -48 0 3 -3 25 -7 50 -10 l45 -4 0 -52 c1 -29 -2 -54 -5 -56 -3 -2 -28 7
-55 21 -28 13 -64 29 -82 34 -51 18 -59 35 -22 50 17 8 37 13 45 13 8 0 14 4
14 9 0 4 20 17 45 29 40 19 66 39 50 39 -3 0 -36 -15 -73 -33 -37 -18 -76 -32
-87 -30 -14 3 -16 2 -7 -5 21 -14 -40 -36 -64 -23 -11 5 -28 13 -39 16 l-20 7
20 8 c15 6 10 8 -18 8 -59 0 -66 17 -15 36 23 9 32 14 18 11 -70 -15 -85 -17
-80 -13 3 3 61 24 130 47 69 24 134 46 145 51 59 24 71 27 81 23 6 -2 11 -14
10 -26z m-339 -133 c7 -1 35 -13 63 -27 l50 -25 -26 -17 c-19 -12 -29 -14 -39
-5 -10 8 -13 7 -11 -2 0 -7 -3 -15 -9 -17 -5 -2 -22 -12 -36 -22 -26 -18 -26
-18 -49 6 -13 14 -28 25 -34 25 -6 0 1 -11 16 -24 26 -23 27 -36 3 -36 -6 0
-18 11 -25 25 -10 19 -10 27 -1 39 7 8 11 20 10 28 -1 7 -1 23 0 36 1 19 5 22
22 17 19 -6 20 -5 9 15 -11 21 -11 21 16 4 15 -10 33 -19 41 -20z m-224 -98
c-16 -22 -69 -56 -88 -56 -4 0 -4 7 -1 16 3 8 2 12 -4 9 -14 -9 -12 -31 4 -64
13 -24 13 -31 1 -49 -25 -35 -111 -191 -100 -180 4 3 22 30 40 60 19 29 38 58
42 63 4 6 14 22 22 38 14 26 41 38 41 18 0 -6 12 -6 30 -1 17 5 30 6 30 4 0
-3 7 2 16 11 12 12 19 13 30 4 7 -6 12 -14 11 -17 -2 -10 46 -172 50 -168 2 2
-5 41 -17 87 -11 46 -23 92 -25 102 -4 19 44 50 61 39 5 -4 29 -32 54 -62 24
-30 75 -92 113 -138 l70 -82 -28 -24 c-47 -41 -153 -78 -237 -83 l-78 -6 0 53
c0 29 -3 50 -7 47 -3 -4 -6 -23 -5 -42 2 -40 -8 -49 -40 -36 -13 5 -36 12 -51
16 -20 4 -27 10 -23 20 3 8 1 17 -4 20 -6 4 -10 -1 -10 -9 0 -20 2 -21 -58 12
-43 23 -49 30 -40 45 9 16 7 17 -10 6 -16 -10 -23 -9 -38 2 -35 28 -119 118
-136 147 l-17 29 121 98 c118 96 121 97 154 87 40 -12 112 -8 127 7 19 19 19
3 0 -23z m398 18 c19 -9 54 -26 79 -37 25 -11 55 -24 66 -30 24 -10 23 -19
-15 -116 -34 -83 -119 -197 -142 -189 -15 5 -220 281 -216 291 7 22 23 15 72
-28 27 -24 51 -42 53 -40 3 2 -10 16 -28 31 -62 53 -64 56 -43 68 56 31 119
63 129 65 6 0 26 -6 45 -15z m-290 -55 c18 -21 18 -23 1 -35 -17 -13 -51 -20
-39 -8 3 4 1 16 -4 27 -8 15 -8 22 2 28 19 12 19 12 40 -12z m-62 -69 c-19
-12 -31 -1 -23 22 4 15 3 19 -7 14 -8 -4 -5 0 6 9 19 15 20 14 29 -11 6 -19 5
-29 -5 -34z"/>
<path d="M4089 2038 c-9 -18 -28 -54 -43 -80 -15 -27 -24 -48 -19 -48 5 0 14
12 20 28 6 15 26 51 43 80 17 28 28 52 23 52 -5 0 -16 -15 -24 -32z"/>
<path d="M4187 1949 c-15 -27 -23 -49 -19 -49 8 0 55 90 50 95 -2 2 -15 -19
-31 -46z"/>
<path d="M3985 1848 c-15 -29 -37 -68 -47 -85 -11 -18 -16 -33 -11 -33 9 0 96
160 90 166 -2 2 -16 -20 -32 -48z"/>
<path d="M4132 1851 c-32 -60 -45 -84 -64 -110 -10 -13 -18 -31 -18 -40 1 -9
7 -3 16 14 8 17 20 39 27 50 49 79 69 117 64 121 -2 3 -14 -13 -25 -35z"/>
<path d="M3913 1795 c0 -8 4 -12 9 -9 4 3 8 9 8 15 0 5 -4 9 -8 9 -5 0 -9 -7
-9 -15z"/>
<path d="M3780 1985 c0 -5 5 -17 10 -25 5 -8 10 -10 10 -5 0 6 -5 17 -10 25
-5 8 -10 11 -10 5z"/>
<path d="M3816 1887 c3 -10 9 -15 12 -12 3 3 0 11 -7 18 -10 9 -11 8 -5 -6z"/>
<path d="M3830 1855 c0 -5 5 -17 10 -25 5 -8 10 -10 10 -5 0 6 -5 17 -10 25
-5 8 -10 11 -10 5z"/>
<path d="M3850 1801 c0 -6 4 -13 10 -16 6 -3 7 1 4 9 -7 18 -14 21 -14 7z"/>
<path d="M3366 1522 c-3 -4 4 -9 15 -9 23 -2 25 3 4 10 -8 4 -16 3 -19 -1z"/>
<path d="M3530 1510 c-9 -6 -10 -10 -3 -10 6 0 15 5 18 10 8 12 4 12 -15 0z"/>
<path d="M3655 1510 c-16 -7 -17 -9 -3 -9 9 -1 20 4 23 9 7 11 7 11 -20 0z"/>
<path d="M3588 1491 c4 -9 7 -11 9 -4 3 7 11 9 19 6 8 -3 14 0 14 6 0 6 -11
10 -24 9 -17 -2 -22 -7 -18 -17z"/>
<path d="M3764 1398 l-19 -23 23 19 c12 11 22 21 22 23 0 8 -8 2 -26 -19z"/>
<path d="M3590 1389 c0 -5 5 -7 10 -4 6 3 10 8 10 11 0 2 -4 4 -10 4 -5 0 -10
-5 -10 -11z"/>
<path d="M3555 1370 c-3 -6 1 -7 9 -4 18 7 21 14 7 14 -6 0 -13 -4 -16 -10z"/>
<path d="M3715 1360 c-3 -6 1 -7 9 -4 18 7 21 14 7 14 -6 0 -13 -4 -16 -10z"/>
<path d="M3504 1339 c-19 -22 -19 -22 3 -10 24 12 39 31 25 31 -5 0 -17 -10
-28 -21z"/>
<path d="M3831 1224 c0 -11 3 -14 6 -6 3 7 2 16 -1 19 -3 4 -6 -2 -5 -13z"/>
<path d="M3823 1185 c0 -8 4 -12 9 -9 5 3 6 10 3 15 -9 13 -12 11 -12 -6z"/>
<path d="M3706 1123 c-6 -14 -5 -15 5 -6 7 7 10 15 7 18 -3 3 -9 -2 -12 -12z"/>
<path d="M3812 1098 c-1 -18 -5 -41 -8 -50 -3 -10 -2 -18 3 -18 5 0 10 15 11
33 1 17 5 40 8 50 3 9 2 17 -3 17 -5 0 -10 -15 -11 -32z"/>
<path d="M3905 1100 c3 -5 8 -10 11 -10 2 0 4 5 4 10 0 6 -5 10 -11 10 -5 0
-7 -4 -4 -10z"/>
<path d="M4010 1081 c0 -6 4 -13 10 -16 6 -3 7 1 4 9 -7 18 -14 21 -14 7z"/>
<path d="M3910 1069 c0 -5 5 -7 10 -4 6 3 10 8 10 11 0 2 -4 4 -10 4 -5 0 -10
-5 -10 -11z"/>
<path d="M4290 1539 c-19 -4 -49 -9 -67 -11 -17 -1 -30 -5 -28 -8 6 -9 135 12
135 22 0 4 -1 8 -2 7 -2 -1 -19 -5 -38 -10z"/>
<path d="M4346 1542 c-3 -5 1 -9 9 -9 8 0 15 4 15 9 0 4 -4 8 -9 8 -6 0 -12
-4 -15 -8z"/>
<path d="M4160 1520 c0 -5 5 -10 11 -10 5 0 7 5 4 10 -3 6 -8 10 -11 10 -2 0
-4 -4 -4 -10z"/>
<path d="M4095 1510 c-25 -11 1 -11 35 0 20 6 21 8 5 8 -11 0 -29 -3 -40 -8z"/>
<path d="M4258 1448 c5 -5 16 -8 23 -6 8 3 3 7 -10 11 -17 4 -21 3 -13 -5z"/>
<path d="M3930 1445 c0 -12 185 -205 196 -205 4 0 -20 28 -52 62 -32 34 -78
82 -101 107 -24 25 -43 41 -43 36z"/>
<path d="M4110 1400 c0 -5 5 -10 11 -10 5 0 7 5 4 10 -3 6 -8 10 -11 10 -2 0
-4 -4 -4 -10z"/>
<path d="M4140 1219 c8 -8 21 -21 29 -29 12 -12 11 -10 0 9 -9 14 -22 27 -30
29 -11 3 -11 2 1 -9z"/>
<path d="M4205 1150 c10 -11 20 -20 23 -20 3 0 -3 9 -13 20 -10 11 -20 20 -23
20 -3 0 3 -9 13 -20z"/>
<path d="M1016 1237 c3 -10 9 -15 12 -12 3 3 0 11 -7 18 -10 9 -11 8 -5 -6z"/>
<path d="M1056 1167 c3 -10 9 -15 12 -12 3 3 0 11 -7 18 -10 9 -11 8 -5 -6z"/>
<path d="M1076 1127 c3 -10 9 -15 12 -12 3 3 0 11 -7 18 -10 9 -11 8 -5 -6z"/>
<path d="M1096 1087 c3 -10 9 -15 12 -12 3 3 0 11 -7 18 -10 9 -11 8 -5 -6z"/>
<path d="M1173 1240 c-1 -11 2 -18 8 -15 11 7 12 35 1 35 -4 0 -8 -9 -9 -20z"/>
<path d="M1217 1103 c-23 -66 -21 -80 3 -18 11 28 19 54 17 58 -1 5 -10 -13
-20 -40z"/>
<path d="M1322 1028 c-10 -30 -10 -31 3 -14 13 17 21 46 12 46 -1 0 -8 -15
-15 -32z"/>
<path d="M676 752 c-3 -5 1 -9 9 -9 8 0 12 4 9 9 -3 4 -7 8 -9 8 -2 0 -6 -4
-9 -8z"/>
<path d="M725 750 c-16 -7 -17 -9 -3 -9 9 -1 20 4 23 9 7 11 7 11 -20 0z"/>
<path d="M870 750 c-13 -8 -12 -10 3 -10 9 0 17 5 17 10 0 12 -1 12 -20 0z"/>
<path d="M818 743 c6 -2 18 -2 25 0 6 3 1 5 -13 5 -14 0 -19 -2 -12 -5z"/>
<path d="M1609 846 c-3 -3 -18 -8 -34 -11 -17 -3 -46 -10 -65 -15 l-35 -10 40
6 c74 10 100 16 110 25 5 6 5 9 -1 9 -6 0 -13 -2 -15 -4z"/>
<path d="M1483 743 c9 -2 25 -2 35 0 9 3 1 5 -18 5 -19 0 -27 -2 -17 -5z"/>
<path d="M1173 465 c0 -22 2 -30 4 -17 2 12 2 30 0 40 -3 9 -5 -1 -4 -23z"/>
<path d="M1170 401 c0 -6 4 -12 8 -15 5 -3 9 1 9 9 0 8 -4 15 -9 15 -4 0 -8
-4 -8 -9z"/>
<path d="M1174 330 c0 -22 2 -40 6 -40 3 0 6 18 6 40 0 22 -2 40 -6 40 -3 0
-6 -18 -6 -40z"/>
<path d="M1070 354 c0 -5 -4 -26 -9 -46 -5 -21 -5 -38 -1 -38 8 0 21 82 14 89
-2 2 -4 0 -4 -5z"/>
<path d="M1386 317 c3 -10 9 -15 12 -12 3 3 0 11 -7 18 -10 9 -11 8 -5 -6z"/>
<path d="M1411 270 c14 -31 19 -36 19 -24 0 6 -7 19 -16 30 -14 18 -14 18 -3
-6z"/>
<path d="M1510 616 c0 -2 8 -10 18 -17 15 -13 16 -12 3 4 -13 16 -21 21 -21
13z"/>
<path d="M1460 508 c0 -2 9 -11 20 -21 11 -9 20 -13 20 -7 0 5 -9 14 -20 20
-11 6 -20 9 -20 8z"/>
<path d="M1510 466 c0 -2 8 -10 18 -17 15 -13 16 -12 3 4 -13 16 -21 21 -21
13z"/>
<path d="M1556 427 c3 -10 9 -15 12 -12 3 3 0 11 -7 18 -10 9 -11 8 -5 -6z"/>
</g>
</svg>
